<?xml version="1.0" encoding="utf-8"?>
<!-- Svg Vector Icons : http://www.onlinewebfonts.com/icon -->
<!DOCTYPE svg PUBLIC "-//W3C//DTD SVG 1.1//EN" "http://www.w3.org/Graphics/SVG/1.1/DTD/svg11.dtd">
<svg version="1.1" xmlns="http://www.w3.org/2000/svg" xmlns:xlink="http://www.w3.org/1999/xlink" x="0px" y="0px" viewBox="0 0 1000 1000" enable-background="new 0 0 1000 1000" xml:space="preserve">
<metadata> Svg Vector Icons : http://www.onlinewebfonts.com/icon </metadata>
<g><path d="M815.7,572.6c-18.8,0-34.1,15.3-34.1,34.1v321.1H221.2V606.7c0-18.8-15.3-34.1-34.1-34.1s-34.1,15.3-34.1,34.1v355.2c0,18.8,15.3,34.1,34.1,34.1h628.5c18.8,0,34.1-15.3,34.1-34.1V606.7C849.8,587.9,834.5,572.6,815.7,572.6z"/><path d="M979.2,439L524.1,13.2C511,1,490.7,1,477.6,13.2L20.8,439c-13.8,12.8-14.5,34.4-1.7,48.2C25.9,494.3,35,498,44.1,498c8.3,0,16.7-3,23.2-9.1L500.8,84.7l431.8,404c13.7,12.9,35.3,12.1,48.2-1.6C993.7,473.4,992.9,451.8,979.2,439z"/></g>
</svg>